<svg xmlns="http://www.w3.org/2000/svg" xmlns:svg="http://www.w3.org/2000/svg" id="svg7778" width="253.2" height="80.7" x="0" y="0" version="1.1" viewBox="0 0 253.2 80.7" xml:space="preserve"><style id="style2" type="text/css">.st3{fill:#009fe3}.st11{fill:#79cdf4}</style><g id="layer1" transform="translate(0,-220.27083)"><linearGradient id="path4183_00000070115224704539194360000008523273875692193981_" x1="59.956" x2="464.478" y1="191.481" y2="191.481" gradientTransform="matrix(1.349,0,0,1.3018,-80.8803,149.6922)" gradientUnits="userSpaceOnUse"><stop offset="0" style="stop-color:#fff;stop-opacity:.2427" id="stop6"/><stop offset="1" style="stop-color:#f0f0f0" id="stop8"/></linearGradient></g><g id="FakorZehn_x5F_Logo_x5F_blau_00000041980699345322068770000008479020993047042957_" transform="translate(-272.8,-113.7)"><g id="g169"><g id="g135"><polygon id="polygon133" points="320.1 140.8 318 145.4 304.6 145.4 304.6 151.7 315.1 151.7 313.1 156.2 304.6 156.2 304.6 167 299.7 167 299.7 140.8" class="st3"/></g><g id="g139"><path id="path137" d="m 327.2,145.4 h -5 l -9.7,21.6 h 5.4 l 1.7,-4.1 h 10.1 l 1.7,4.1 h 5.4 z m -5.8,13.3 3.3,-7.7 3.3,7.7 z" class="st3"/></g><g id="g143"><polygon id="polygon141" points="350.1 145.4 356.5 145.4 347 156 357.4 167 350.8 167 343.1 158.8 343.1 167 338.2 167 338.2 145.4 343.1 145.4 343.1 153.3" class="st3"/></g><g id="g147"><polygon id="polygon145" points="375.9 145.4 375.9 149.9 369.3 149.9 369.3 167 364.3 167 364.3 149.9 357.3 149.9 361.3 145.4" class="st3"/></g><g id="g151"><path id="path149" d="m 387.6,144.9 c -6.8,0 -11.4,4.6 -11.4,11.3 0,6.7 4.6,11.3 11.4,11.3 6.8,0 11.3,-4.5 11.3,-11.3 0,-6.7 -4.5,-11.3 -11.3,-11.3 z m 0,18.1 c -3.8,0 -6.4,-2.7 -6.4,-6.7 0,-4 2.6,-6.7 6.4,-6.7 3.8,0 6.3,2.7 6.3,6.7 0.1,3.9 -2.5,6.7 -6.3,6.7 z" class="st11"/></g><g id="g155"><polygon id="polygon153" points="433.4 143.5 419.4 162.6 433.5 162.6 433.5 167 411.5 167 411.5 164.3 425.7 145.3 412 145.3 414.1 140.6 433.4 140.6" class="st3"/></g><g id="g159"><polygon id="polygon157" points="453.1 154 453.1 158.2 442.1 158.2 442.1 162.6 453.6 162.6 453.6 167 437.3 167 437.3 145.4 453.6 145.4 453.6 149.9 442.1 149.9 442.1 154" class="st3"/></g><g id="g163"><polygon id="polygon161" points="462.4 145.4 462.4 153.7 471.4 153.7 471.4 145.4 476.4 145.4 476.4 167 471.4 167 471.4 158.4 462.4 158.4 462.4 167 457.5 167 457.5 145.4" class="st3"/></g><g id="g167"><polygon id="polygon165" points="484.4 145.4 494.2 158.6 494.2 145.4 499.1 145.4 499.1 167 494.7 167 485 154 485 158.9 485 167 480.1 167 480.1 145.4" class="st3"/></g></g><g id="g175"><g id="g173"><polygon id="polygon171" points="406 167 401.1 167 401.1 145.4 411.3 145.4 409.3 149.9 406 149.9" class="st11"/></g></g></g></svg>